<?xml version="1.0" standalone="no"?>
<!DOCTYPE svg PUBLIC "-//W3C//DTD SVG 20010904//EN"
 "http://www.w3.org/TR/2001/REC-SVG-20010904/DTD/svg10.dtd">
<svg version="1.0" xmlns="http://www.w3.org/2000/svg"
 width="1024.000000pt" height="1024.000000pt" viewBox="0 0 1024.000000 1024.000000"
 preserveAspectRatio="xMidYMid meet">
<metadata>
Created by potrace 1.11, written by Peter Selinger 2001-2013
</metadata>
<g transform="translate(0.000000,1024.000000) scale(0.100000,-0.100000)"
fill="#000000" stroke="none">
<path d="M0 5120 l0 -5120 5120 0 5120 0 0 5120 0 5120 -5120 0 -5120 0 0
-5120z m3525 1949 c417 -44 814 -214 1099 -472 l58 -53 -187 -247 c-103 -136
-191 -247 -194 -247 -3 0 -34 25 -69 55 -195 170 -440 290 -703 345 -211 44
-468 43 -614 -1 -243 -73 -389 -255 -373 -463 10 -124 86 -217 245 -299 116
-60 244 -101 575 -188 439 -114 618 -173 803 -266 410 -205 605 -503 605 -926
0 -470 -224 -828 -643 -1027 -191 -91 -391 -140 -652 -161 -427 -33 -870 45
-1219 216 -176 86 -387 235 -497 352 l-36 38 179 245 c98 135 183 252 188 260
7 12 20 5 67 -41 246 -236 555 -397 878 -455 123 -22 427 -26 520 -6 249 54
400 153 480 316 33 67 38 86 42 168 4 79 2 102 -17 151 -63 166 -228 271 -596
376 -76 22 -238 65 -359 97 -314 81 -503 145 -664 224 -394 196 -572 452 -588
850 -10 253 56 471 202 664 288 383 823 563 1470 495z m3879 6 c332 -16 683
-150 947 -361 101 -81 230 -214 307 -318 73 -97 117 -165 111 -171 -20 -18
-563 -295 -568 -288 -4 4 -25 35 -46 67 -98 146 -311 318 -483 391 -220 92
-470 113 -725 60 -656 -135 -1082 -747 -1027 -1474 40 -519 305 -929 735
-1137 358 -173 752 -177 1080 -11 155 78 356 253 435 379 l34 56 289 -144 288
-145 -57 -82 c-421 -605 -1047 -869 -1813 -762 -694 97 -1273 532 -1531 1152
-173 413 -204 898 -89 1357 205 818 926 1390 1809 1435 74 4 149 6 165 4 17
-1 79 -5 139 -8z"/>
</g>
</svg>
